<?xml version="1.0" encoding="UTF-8" standalone="no"?>
<!-- Created with Inkscape (http://www.inkscape.org/) -->

<svg
   version="1.1"
   id="svg2"
   xml:space="preserve"
   width="247.496"
   height="35.289333"
   viewBox="0 0 247.496 35.289333"
   xmlns="http://www.w3.org/2000/svg"
   xmlns:svg="http://www.w3.org/2000/svg"><defs
     id="defs6" /><g
     id="g8"
     transform="matrix(1.3333333,0,0,-1.3333333,0,35.289333)"><g
       id="g10"
       transform="translate(92.811,13.233)"><g
         id="g12"><g
           id="g14"><g
             id="g16"><g
               id="g18"><path
                 d="M 88.62798,13.03426 H -88.62798 c -2.20094,0 -3.9851,-1.78417 -3.9851,-3.98511 v -18.0983 c 0,-2.20094 1.78416,-3.98511 3.9851,-3.98511 H 88.62798 c 2.20094,0 3.9851,1.78417 3.9851,3.98511 v 18.0983 c 0,2.20094 -1.78416,3.98511 -3.9851,3.98511 z"
                 style="fill:#e6e6ff;fill-opacity:1;fill-rule:nonzero;stroke:#000000;stroke-width:0.3985;stroke-linecap:butt;stroke-linejoin:miter;stroke-miterlimit:10;stroke-dasharray:none;stroke-opacity:1"
                 id="path20" /></g><g
               id="g22"
               transform="translate(-89.291,3.487)"><g
                 id="g24"><g
                   id="g26"
                   transform="translate(-3.52,-16.72)"><text
                     transform="matrix(1,0,0,-1,61.11,16.72)"
                     style="font-variant:normal;font-weight:normal;font-size:8.9664px;font-family:CMR9;-inkscape-font-specification:CMR9;writing-mode:lr-tb;fill:#000000;fill-opacity:1;fill-rule:nonzero;stroke:none"
                     id="text30"><tspan
                       x="0 3.3265345 8.1863232 11.770193 15.869632 19.474125 24.593939 29.201771 34.837154 41.108253 46.228069 50.327507 53.931999 58.539833"
                       y="0"
                       id="tspan28">InternalEnergy</tspan></text><text
                     transform="matrix(1,0,0,-1,71.589,5.761)"
                     style="font-variant:normal;font-weight:normal;font-size:8.9664px;font-family:CMMI9;-inkscape-font-specification:CMMI9;writing-mode:lr-tb;fill:#000000;fill-opacity:1;fill-rule:nonzero;stroke:none"
                     id="text34"><tspan
                       x="0"
                       y="0"
                       id="tspan32">U</tspan></text><text
                     transform="matrix(1,0,0,-1,78.825,5.761)"
                     style="font-variant:normal;font-weight:normal;font-size:8.9664px;font-family:CMR9;-inkscape-font-specification:CMR9;writing-mode:lr-tb;fill:#000000;fill-opacity:1;fill-rule:nonzero;stroke:none"
                     id="text38"><tspan
                       x="0"
                       y="0"
                       id="tspan36">(</tspan></text><text
                     transform="matrix(1,0,0,-1,82.409,5.761)"
                     style="font-variant:normal;font-weight:normal;font-size:8.9664px;font-family:CMMI9;-inkscape-font-specification:CMMI9;writing-mode:lr-tb;fill:#000000;fill-opacity:1;fill-rule:nonzero;stroke:none"
                     id="text42"><tspan
                       x="0 5.629106 9.7222672 15.607813 19.700974"
                       y="0"
                       id="tspan40">S,V,N</tspan></text><text
                     transform="matrix(1,0,0,-1,110.45,5.761)"
                     style="font-variant:normal;font-weight:normal;font-size:8.9664px;font-family:CMR9;-inkscape-font-specification:CMR9;writing-mode:lr-tb;fill:#000000;fill-opacity:1;fill-rule:nonzero;stroke:none"
                     id="text46"><tspan
                       x="0"
                       y="0"
                       id="tspan44">)</tspan></text><g
                     id="g48"
                     transform="translate(3.52,16.72)" /></g></g><g
                 id="g50"
                 transform="translate(89.291,-3.487)" /></g></g></g></g></g></g></svg>
